<svg id="visual" viewBox="0 0 900 675" width="900" height="675" xmlns="http://www.w3.org/2000/svg" xmlns:xlink="http://www.w3.org/1999/xlink" version="1.1"><rect x="0" y="0" width="900" height="675" fill="#EEF0F2"></rect><defs><linearGradient id="grad1_0" x1="25%" y1="0%" x2="100%" y2="100%"><stop offset="23.333333333333336%" stop-color="#c8cbce" stop-opacity="1"></stop><stop offset="76.66666666666666%" stop-color="#c8cbce" stop-opacity="1"></stop></linearGradient></defs><defs><linearGradient id="grad1_1" x1="25%" y1="0%" x2="100%" y2="100%"><stop offset="23.333333333333336%" stop-color="#c8cbce" stop-opacity="1"></stop><stop offset="76.66666666666666%" stop-color="#cdd0d3" stop-opacity="1"></stop></linearGradient></defs><defs><linearGradient id="grad1_2" x1="25%" y1="0%" x2="100%" y2="100%"><stop offset="23.333333333333336%" stop-color="#d3d5d8" stop-opacity="1"></stop><stop offset="76.66666666666666%" stop-color="#cdd0d3" stop-opacity="1"></stop></linearGradient></defs><defs><linearGradient id="grad1_3" x1="25%" y1="0%" x2="100%" y2="100%"><stop offset="23.333333333333336%" stop-color="#d3d5d8" stop-opacity="1"></stop><stop offset="76.66666666666666%" stop-color="#d8dbdd" stop-opacity="1"></stop></linearGradient></defs><defs><linearGradient id="grad1_4" x1="25%" y1="0%" x2="100%" y2="100%"><stop offset="23.333333333333336%" stop-color="#dee0e2" stop-opacity="1"></stop><stop offset="76.66666666666666%" stop-color="#d8dbdd" stop-opacity="1"></stop></linearGradient></defs><defs><linearGradient id="grad1_5" x1="25%" y1="0%" x2="100%" y2="100%"><stop offset="23.333333333333336%" stop-color="#dee0e2" stop-opacity="1"></stop><stop offset="76.66666666666666%" stop-color="#e3e5e8" stop-opacity="1"></stop></linearGradient></defs><defs><linearGradient id="grad1_6" x1="25%" y1="0%" x2="100%" y2="100%"><stop offset="23.333333333333336%" stop-color="#e8ebed" stop-opacity="1"></stop><stop offset="76.66666666666666%" stop-color="#e3e5e8" stop-opacity="1"></stop></linearGradient></defs><defs><linearGradient id="grad1_7" x1="25%" y1="0%" x2="100%" y2="100%"><stop offset="23.333333333333336%" stop-color="#e8ebed" stop-opacity="1"></stop><stop offset="76.66666666666666%" stop-color="#eef0f2" stop-opacity="1"></stop></linearGradient></defs><defs><linearGradient id="grad2_0" x1="0%" y1="0%" x2="75%" y2="100%"><stop offset="23.333333333333336%" stop-color="#c8cbce" stop-opacity="1"></stop><stop offset="76.66666666666666%" stop-color="#c8cbce" stop-opacity="1"></stop></linearGradient></defs><defs><linearGradient id="grad2_1" x1="0%" y1="0%" x2="75%" y2="100%"><stop offset="23.333333333333336%" stop-color="#cdd0d3" stop-opacity="1"></stop><stop offset="76.66666666666666%" stop-color="#c8cbce" stop-opacity="1"></stop></linearGradient></defs><defs><linearGradient id="grad2_2" x1="0%" y1="0%" x2="75%" y2="100%"><stop offset="23.333333333333336%" stop-color="#cdd0d3" stop-opacity="1"></stop><stop offset="76.66666666666666%" stop-color="#d3d5d8" stop-opacity="1"></stop></linearGradient></defs><defs><linearGradient id="grad2_3" x1="0%" y1="0%" x2="75%" y2="100%"><stop offset="23.333333333333336%" stop-color="#d8dbdd" stop-opacity="1"></stop><stop offset="76.66666666666666%" stop-color="#d3d5d8" stop-opacity="1"></stop></linearGradient></defs><defs><linearGradient id="grad2_4" x1="0%" y1="0%" x2="75%" y2="100%"><stop offset="23.333333333333336%" stop-color="#d8dbdd" stop-opacity="1"></stop><stop offset="76.66666666666666%" stop-color="#dee0e2" stop-opacity="1"></stop></linearGradient></defs><defs><linearGradient id="grad2_5" x1="0%" y1="0%" x2="75%" y2="100%"><stop offset="23.333333333333336%" stop-color="#e3e5e8" stop-opacity="1"></stop><stop offset="76.66666666666666%" stop-color="#dee0e2" stop-opacity="1"></stop></linearGradient></defs><defs><linearGradient id="grad2_6" x1="0%" y1="0%" x2="75%" y2="100%"><stop offset="23.333333333333336%" stop-color="#e3e5e8" stop-opacity="1"></stop><stop offset="76.66666666666666%" stop-color="#e8ebed" stop-opacity="1"></stop></linearGradient></defs><defs><linearGradient id="grad2_7" x1="0%" y1="0%" x2="75%" y2="100%"><stop offset="23.333333333333336%" stop-color="#eef0f2" stop-opacity="1"></stop><stop offset="76.66666666666666%" stop-color="#e8ebed" stop-opacity="1"></stop></linearGradient></defs><g transform="translate(900, 0)"><path d="M0 506.3C-92.1 495.1 -184.2 483.9 -253.1 438.4C-322.1 393 -367.8 313.3 -406.2 234.5C-444.5 155.7 -475.4 77.9 -506.2 0L0 0Z" fill="#ebedef"></path><path d="M0 443C-80.6 433.2 -161.2 423.4 -221.5 383.6C-281.8 343.9 -321.9 274.1 -355.4 205.2C-388.9 136.3 -416 68.1 -443 0L0 0Z" fill="#e6e8ea"></path><path d="M0 379.7C-69.1 371.3 -138.1 362.9 -189.8 328.8C-241.5 294.7 -275.9 235 -304.6 175.9C-333.4 116.8 -356.5 58.4 -379.7 0L0 0Z" fill="#e0e3e5"></path><path d="M0 316.4C-57.6 309.4 -115.1 302.4 -158.2 274C-201.3 245.6 -229.9 195.8 -253.9 146.6C-277.8 97.3 -297.1 48.7 -316.4 0L0 0Z" fill="#dbdde0"></path><path d="M0 253.1C-46 247.5 -92.1 241.9 -126.6 219.2C-161 196.5 -183.9 156.6 -203.1 117.3C-222.2 77.9 -237.7 38.9 -253.1 0L0 0Z" fill="#d5d8db"></path><path d="M0 189.8C-34.5 185.6 -69.1 181.5 -94.9 164.4C-120.8 147.4 -137.9 117.5 -152.3 87.9C-166.7 58.4 -178.3 29.2 -189.8 0L0 0Z" fill="#d0d3d6"></path><path d="M0 126.6C-23 123.8 -46 121 -63.3 109.6C-80.5 98.2 -92 78.3 -101.5 58.6C-111.1 38.9 -118.8 19.5 -126.6 0L0 0Z" fill="#cbced1"></path><path d="M0 63.3C-11.5 61.9 -23 60.5 -31.6 54.8C-40.3 49.1 -46 39.2 -50.8 29.3C-55.6 19.5 -59.4 9.7 -63.3 0L0 0Z" fill="#c8cbce"></path></g><g transform="translate(0, 675)"><path d="M0 -506.2C95.9 -497.3 191.8 -488.3 253.1 -438.4C314.4 -388.6 341.2 -297.9 377.6 -218C414 -138.1 460.1 -69.1 506.3 0L0 0Z" fill="#ebedef"></path><path d="M0 -443C83.9 -435.1 167.8 -427.2 221.5 -383.6C275.1 -340 298.5 -260.6 330.4 -190.8C362.3 -120.9 402.6 -60.4 443 0L0 0Z" fill="#e6e8ea"></path><path d="M0 -379.7C71.9 -372.9 143.9 -366.2 189.8 -328.8C235.8 -291.4 255.9 -223.4 283.2 -163.5C310.5 -103.6 345.1 -51.8 379.7 0L0 0Z" fill="#e0e3e5"></path><path d="M0 -316.4C59.9 -310.8 119.9 -305.2 158.2 -274C196.5 -242.9 213.2 -186.2 236 -136.3C258.8 -86.3 287.6 -43.2 316.4 0L0 0Z" fill="#dbdde0"></path><path d="M0 -253.1C48 -248.6 95.9 -244.1 126.6 -219.2C157.2 -194.3 170.6 -148.9 188.8 -109C207 -69.1 230.1 -34.5 253.1 0L0 0Z" fill="#d5d8db"></path><path d="M0 -189.8C36 -186.5 71.9 -183.1 94.9 -164.4C117.9 -145.7 127.9 -111.7 141.6 -81.8C155.3 -51.8 172.5 -25.9 189.8 0L0 0Z" fill="#d0d3d6"></path><path d="M0 -126.6C24 -124.3 48 -122.1 63.3 -109.6C78.6 -97.1 85.3 -74.5 94.4 -54.5C103.5 -34.5 115 -17.3 126.6 0L0 0Z" fill="#cbced1"></path><path d="M0 -63.3C12 -62.2 24 -61 31.6 -54.8C39.3 -48.6 42.6 -37.2 47.2 -27.3C51.8 -17.3 57.5 -8.6 63.3 0L0 0Z" fill="#c8cbce"></path></g></svg>