<svg width="877.880029296875px" height="92.52000122070312px" xmlns="http://www.w3.org/2000/svg" viewBox="-188.9400146484375 28.73999938964844 877.880029296875 92.52000122070312" style="background: none;" preserveAspectRatio="xMidYMid"><defs><filter id="editing-hole" x="-100%" y="-100%" width="300%" height="300%"><feFlood flood-color="#000000" result="black"></feFlood><feMorphology operator="dilate" radius="2" in="SourceGraphic" result="erode"></feMorphology><feGaussianBlur in="erode" stdDeviation="4" result="blur"></feGaussianBlur><feOffset in="blur" dx="2" dy="2" result="offset"></feOffset><feComposite operator="atop" in="offset" in2="black" result="merge"></feComposite><feComposite operator="in" in="merge" in2="SourceGraphic" result="inner-shadow"></feComposite></filter></defs><g filter="url(#editing-hole)"><g transform="translate(-68.66500610113144, 98.52147483825684)"><path d="M27.78-35.93L27.78-35.93Q28.52-35.93 28.98-35.47L28.98-35.47L28.98-35.47Q29.44-35.01 29.44-34.27L29.44-34.27L29.44-34.27Q29.44-33.58 28.98-33.12L28.98-33.12L28.98-33.12Q28.52-32.66 27.78-32.66L27.78-32.66L16.84-32.66L16.84-1.79L16.84-1.79Q16.84-1.06 16.33-0.53L16.33-0.53L16.33-0.53Q15.82 0 15.04 0L15.04 0L15.04 0Q14.31 0 13.78-0.53L13.78-0.53L13.78-0.53Q13.25-1.06 13.25-1.79L13.25-1.79L13.25-32.66L2.35-32.66L2.35-32.66Q1.61-32.66 1.15-33.12L1.15-33.12L1.15-33.12Q0.69-33.58 0.69-34.27L0.69-34.27L0.69-34.27Q0.69-35.01 1.15-35.47L1.15-35.47L1.15-35.47Q1.61-35.93 2.35-35.93L2.35-35.93L27.78-35.93ZM45.72-25.39L45.72-25.39Q49.31-25.39 52.23-23.71L52.23-23.71L52.23-23.71Q55.15-22.03 56.83-19.09L56.83-19.09L56.83-19.09Q58.51-16.15 58.51-12.56L58.51-12.56L58.51-1.75L58.51-1.75Q58.51-1.01 58.01-0.51L58.01-0.51L58.01-0.51Q57.50 0 56.72 0L56.72 0L56.72 0Q55.94 0 55.43-0.48L55.43-0.48L55.43-0.48Q54.92-0.97 54.92-1.75L54.92-1.75L54.92-4.51L54.92-4.51Q53.31-2.30 50.83-1.03L50.83-1.03L50.83-1.03Q48.35 0.23 45.36 0.23L45.36 0.23L45.36 0.23Q41.86 0.23 39.03-1.45L39.03-1.45L39.03-1.45Q36.20-3.13 34.57-6.05L34.57-6.05L34.57-6.05Q32.94-8.97 32.94-12.56L32.94-12.56L32.94-12.56Q32.94-16.15 34.62-19.09L34.62-19.09L34.62-19.09Q36.29-22.03 39.21-23.71L39.21-23.71L39.21-23.71Q42.14-25.39 45.72-25.39L45.72-25.39ZM45.72-2.99L45.72-2.99Q48.35-2.99 50.46-4.23L50.46-4.23L50.46-4.23Q52.58-5.47 53.80-7.66L53.80-7.66L53.80-7.66Q55.02-9.84 55.02-12.56L55.02-12.56L55.02-12.56Q55.02-15.27 53.80-17.46L53.80-17.46L53.80-17.46Q52.58-19.64 50.46-20.91L50.46-20.91L50.46-20.91Q48.35-22.17 45.72-22.17L45.72-22.17L45.72-22.17Q43.10-22.17 40.96-20.91L40.96-20.91L40.96-20.91Q38.82-19.64 37.60-17.46L37.60-17.46L37.60-17.46Q36.39-15.27 36.39-12.56L36.39-12.56L36.39-12.56Q36.39-9.84 37.60-7.66L37.60-7.66L37.60-7.66Q38.82-5.47 40.96-4.23L40.96-4.23L40.96-4.23Q43.10-2.99 45.72-2.99L45.72-2.99ZM65.46-23.83L65.46-23.83Q65.41-23.69 65.41-23.41L65.41-23.41L65.41-12.60L65.41-12.60Q65.41-9.02 67.09-6.07L67.09-6.07L67.09-6.07Q68.77-3.13 71.69-1.45L71.69-1.45L71.69-1.45Q74.61 0.23 78.20 0.23L78.20 0.23L78.20 0.23Q81.79 0.23 84.71-1.45L84.71-1.45L84.71-1.45Q87.63-3.13 89.31-6.07L89.31-6.07L89.31-6.07Q90.99-9.02 90.99-12.60L90.99-12.60L90.99-12.60Q90.99-16.19 89.35-19.11L89.35-19.11L89.35-19.11Q87.72-22.03 84.89-23.71L84.89-23.71L84.89-23.71Q82.06-25.39 78.57-25.39L78.57-25.39L78.57-25.39Q75.58-25.39 73.09-24.13L73.09-24.13L73.09-24.13Q70.61-22.86 69-20.65L69-20.65L69-34.13L69-34.13Q69-34.91 68.49-35.42L68.49-35.42L68.49-35.42Q67.99-35.93 67.21-35.93L67.21-35.93L67.21-35.93Q66.42-35.93 65.94-35.42L65.94-35.42L65.94-35.42Q65.46-34.91 65.46-34.13L65.46-34.13L65.46-23.83ZM78.20-2.99L78.20-2.99Q75.58-2.99 73.46-4.25L73.46-4.25L73.46-4.25Q71.35-5.52 70.13-7.71L70.13-7.71L70.13-7.71Q68.91-9.89 68.91-12.60L68.91-12.60L68.91-12.60Q68.91-13.39 68.95-13.75L68.95-13.75L68.95-13.75Q69-13.85 69-13.98L69-13.98L69-13.98Q69.46-17.57 72.01-19.87L72.01-19.87L72.01-19.87Q74.57-22.17 78.20-22.17L78.20-22.17L78.20-22.17Q80.82-22.17 82.96-20.93L82.96-20.93L82.96-20.93Q85.10-19.69 86.32-17.50L86.32-17.50L86.32-17.50Q87.54-15.32 87.54-12.60L87.54-12.60L87.54-12.60Q87.54-9.89 86.32-7.71L86.32-7.71L86.32-7.71Q85.10-5.52 82.96-4.25L82.96-4.25L82.96-4.25Q80.82-2.99 78.20-2.99L78.20-2.99ZM97.01-34.18L97.01-34.18Q97.01-34.96 97.52-35.44L97.52-35.44L97.52-35.44Q98.03-35.93 98.76-35.93L98.76-35.93L98.76-35.93Q99.54-35.93 100.03-35.44L100.03-35.44L100.03-35.44Q100.51-34.96 100.51-34.18L100.51-34.18L100.51-7.96L100.51-7.96Q100.51-5.98 101.31-4.74L101.31-4.74L101.31-4.74Q102.12-3.50 103.36-3.50L103.36-3.50L104.51-3.50L104.51-3.50Q105.20-3.50 105.62-3.01L105.62-3.01L105.62-3.01Q106.03-2.53 106.03-1.75L106.03-1.75L106.03-1.75Q106.03-0.97 105.45-0.48L105.45-0.48L105.45-0.48Q104.88 0 103.96 0L103.96 0L103.36 0L103.36 0Q100.56 0 98.78-2.23L98.78-2.23L98.78-2.23Q97.01-4.46 97.01-7.96L97.01-7.96L97.01-34.18ZM121.62-25.39L121.62-25.39Q125.03-25.39 127.65-23.80L127.65-23.80L127.65-23.80Q130.27-22.22 131.72-19.41L131.72-19.41L131.72-19.41Q133.17-16.61 133.17-13.02L133.17-13.02L133.17-13.02Q133.17-12.28 132.71-11.85L132.71-11.85L132.71-11.85Q132.25-11.41 131.51-11.41L131.51-11.41L112.93-11.41L112.93-11.41Q113.30-7.64 115.87-5.29L115.87-5.29L115.87-5.29Q118.45-2.94 122.31-2.94L122.31-2.94L122.31-2.94Q123.97-2.94 125.65-3.52L125.65-3.52L125.65-3.52Q127.33-4.09 128.34-4.97L128.34-4.97L128.34-4.97Q128.94-5.43 129.58-5.43L129.58-5.43L129.58-5.43Q130.09-5.43 130.59-5.06L130.59-5.06L130.59-5.06Q131.19-4.51 131.19-3.82L131.19-3.82L131.19-3.82Q131.19-3.22 130.69-2.76L130.69-2.76L130.69-2.76Q129.17-1.47 126.82-0.62L126.82-0.62L126.82-0.62Q124.48 0.23 122.31 0.23L122.31 0.23L122.31 0.23Q118.63 0.23 115.74-1.40L115.74-1.40L115.74-1.40Q112.84-3.04 111.20-5.96L111.20-5.96L111.20-5.96Q109.57-8.88 109.57-12.56L109.57-12.56L109.57-12.56Q109.57-16.28 111.11-19.20L111.11-19.20L111.11-19.20Q112.65-22.13 115.39-23.76L115.39-23.76L115.39-23.76Q118.13-25.39 121.62-25.39L121.62-25.39ZM121.62-22.22L121.62-22.22Q118.13-22.22 115.83-20.06L115.83-20.06L115.83-20.06Q113.53-17.89 113.02-14.35L113.02-14.35L129.86-14.35L129.86-14.35Q129.49-17.89 127.28-20.06L127.28-20.06L127.28-20.06Q125.07-22.22 121.62-22.22L121.62-22.22ZM164.08-25.39L164.08-25.39Q167.72-25.39 170.61-23.74L170.61-23.74L170.61-23.74Q173.51-22.08 175.19-19.14L175.19-19.14L175.19-19.14Q176.87-16.19 176.87-12.56L176.87-12.56L176.87-12.56Q176.87-8.92 175.21-6.00L175.21-6.00L175.21-6.00Q173.56-3.08 170.64-1.43L170.64-1.43L170.64-1.43Q167.72 0.23 164.08 0.23L164.08 0.23L164.08 0.23Q160.45 0.23 157.53-1.43L157.53-1.43L157.53-1.43Q154.61-3.08 152.95-6.00L152.95-6.00L152.95-6.00Q151.29-8.92 151.29-12.56L151.29-12.56L151.29-12.56Q151.29-16.19 152.95-19.14L152.95-19.14L152.95-19.14Q154.61-22.08 157.53-23.74L157.53-23.74L157.53-23.74Q160.45-25.39 164.08-25.39L164.08-25.39ZM164.08-22.17L164.08-22.17Q161.46-22.17 159.32-20.93L159.32-20.93L159.32-20.93Q157.18-19.69 155.96-17.50L155.96-17.50L155.96-17.50Q154.74-15.32 154.74-12.56L154.74-12.56L154.74-12.56Q154.74-9.84 155.96-7.66L155.96-7.66L155.96-7.66Q157.18-5.47 159.32-4.23L159.32-4.23L159.32-4.23Q161.46-2.99 164.08-2.99L164.08-2.99L164.08-2.99Q166.75-2.99 168.87-4.23L168.87-4.23L168.87-4.23Q170.98-5.47 172.18-7.66L172.18-7.66L172.18-7.66Q173.37-9.84 173.37-12.56L173.37-12.56L173.37-12.56Q173.37-15.32 172.18-17.50L172.18-17.50L172.18-17.50Q170.98-19.69 168.87-20.93L168.87-20.93L168.87-20.93Q166.75-22.17 164.08-22.17L164.08-22.17ZM194.86-32.71L194.86-32.71Q191.82-32.71 190.28-30.68L190.28-30.68L190.28-30.68Q188.74-28.66 188.74-25.30L188.74-25.30L188.74-24.24L194.26-24.24L194.26-24.24Q194.99-24.24 195.43-23.80L195.43-23.80L195.43-23.80Q195.87-23.37 195.87-22.68L195.87-22.68L195.87-22.68Q195.87-22.03 195.43-21.60L195.43-21.60L195.43-21.60Q194.99-21.16 194.26-21.16L194.26-21.16L188.74-21.16L188.74-1.79L188.74-1.79Q188.74-0.97 188.25-0.48L188.25-0.48L188.25-0.48Q187.77 0 186.90 0L186.90 0L186.90 0Q186.16 0 185.68-0.48L185.68-0.48L185.68-0.48Q185.20-0.97 185.20-1.79L185.20-1.79L185.20-21.16L182.25-21.16L182.25-21.16Q181.52-21.16 181.08-21.60L181.08-21.60L181.08-21.60Q180.64-22.03 180.64-22.68L180.64-22.68L180.64-22.68Q180.64-23.37 181.08-23.80L181.08-23.80L181.08-23.80Q181.52-24.24 182.25-24.24L182.25-24.24L185.20-24.24L185.20-25.12L185.20-25.12Q185.20-30.04 187.73-32.98L187.73-32.98L187.73-32.98Q190.26-35.93 194.86-35.93L194.86-35.93L194.86-35.93Q195.64-35.93 196.14-35.47L196.14-35.47L196.14-35.47Q196.65-35.01 196.65-34.32L196.65-34.32L196.65-34.32Q196.65-33.63 196.14-33.17L196.14-33.17L196.14-33.17Q195.64-32.71 194.86-32.71L194.86-32.71ZM226.87-25.39L226.87-25.39Q230.46-25.39 233.38-23.71L233.38-23.71L233.38-23.71Q236.30-22.03 237.98-19.09L237.98-19.09L237.98-19.09Q239.66-16.15 239.66-12.56L239.66-12.56L239.66-12.56Q239.66-8.97 238.03-6.05L238.03-6.05L238.03-6.05Q236.39-3.13 233.57-1.45L233.57-1.45L233.57-1.45Q230.74 0.23 227.24 0.23L227.24 0.23L227.24 0.23Q224.25 0.23 221.77-1.03L221.77-1.03L221.77-1.03Q219.28-2.30 217.67-4.51L217.67-4.51L217.67 8.97L217.67 8.97Q217.67 9.75 217.17 10.26L217.17 10.26L217.17 10.26Q216.66 10.76 215.88 10.76L215.88 10.76L215.88 10.76Q215.10 10.76 214.61 10.26L214.61 10.26L214.61 10.26Q214.13 9.75 214.13 8.97L214.13 8.97L214.13-1.33L214.13-1.33Q214.08-1.47 214.08-1.75L214.08-1.75L214.08-12.56L214.08-12.56Q214.08-16.15 215.76-19.09L215.76-19.09L215.76-19.09Q217.44-22.03 220.36-23.71L220.36-23.71L220.36-23.71Q223.28-25.39 226.87-25.39L226.87-25.39ZM226.87-2.99L226.87-2.99Q229.49-2.99 231.63-4.23L231.63-4.23L231.63-4.23Q233.77-5.47 234.99-7.66L234.99-7.66L234.99-7.66Q236.21-9.84 236.21-12.56L236.21-12.56L236.21-12.56Q236.21-15.27 234.99-17.46L234.99-17.46L234.99-17.46Q233.77-19.64 231.63-20.91L231.63-20.91L231.63-20.91Q229.49-22.17 226.87-22.17L226.87-22.17L226.87-22.17Q224.25-22.17 222.13-20.91L222.13-20.91L222.13-20.91Q220.02-19.64 218.80-17.46L218.80-17.46L218.80-17.46Q217.58-15.27 217.58-12.56L217.58-12.56L217.58-12.56Q217.58-11.78 217.63-11.41L217.63-11.41L217.63-11.41Q217.67-11.32 217.67-11.18L217.67-11.18L217.67-11.18Q218.13-7.59 220.69-5.29L220.69-5.29L220.69-5.29Q223.24-2.99 226.87-2.99L226.87-2.99ZM257.32-25.39L257.32-25.39Q260.73-25.39 263.35-23.80L263.35-23.80L263.35-23.80Q265.97-22.22 267.42-19.41L267.42-19.41L267.42-19.41Q268.87-16.61 268.87-13.02L268.87-13.02L268.87-13.02Q268.87-12.28 268.41-11.85L268.41-11.85L268.41-11.85Q267.95-11.41 267.21-11.41L267.21-11.41L248.63-11.41L248.63-11.41Q249.00-7.64 251.57-5.29L251.57-5.29L251.57-5.29Q254.15-2.94 258.01-2.94L258.01-2.94L258.01-2.94Q259.67-2.94 261.35-3.52L261.35-3.52L261.35-3.52Q263.03-4.09 264.04-4.97L264.04-4.97L264.04-4.97Q264.64-5.43 265.28-5.43L265.28-5.43L265.28-5.43Q265.79-5.43 266.29-5.06L266.29-5.06L266.29-5.06Q266.89-4.51 266.89-3.82L266.89-3.82L266.89-3.82Q266.89-3.22 266.39-2.76L266.39-2.76L266.39-2.76Q264.87-1.47 262.52-0.62L262.52-0.62L262.52-0.62Q260.18 0.23 258.01 0.23L258.01 0.23L258.01 0.23Q254.33 0.23 251.44-1.40L251.44-1.40L251.44-1.40Q248.54-3.04 246.91-5.96L246.91-5.96L246.91-5.96Q245.27-8.88 245.27-12.56L245.27-12.56L245.27-12.56Q245.27-16.28 246.81-19.20L246.81-19.20L246.81-19.20Q248.35-22.13 251.09-23.76L251.09-23.76L251.09-23.76Q253.83-25.39 257.32-25.39L257.32-25.39ZM257.32-22.22L257.32-22.22Q253.83-22.22 251.53-20.06L251.53-20.06L251.53-20.06Q249.23-17.89 248.72-14.35L248.72-14.35L265.56-14.35L265.56-14.35Q265.19-17.89 262.98-20.06L262.98-20.06L262.98-20.06Q260.77-22.22 257.32-22.22L257.32-22.22ZM286.21-25.44L286.21-25.44Q288.14-25.44 289.27-24.93L289.27-24.93L289.27-24.93Q290.40-24.43 290.40-23.51L290.40-23.51L290.40-23.51Q290.40-23.23 290.35-23.09L290.35-23.09L290.35-23.09Q290.17-22.45 289.78-22.22L289.78-22.22L289.78-22.22Q289.39-21.99 288.70-21.99L288.70-21.99L288.70-21.99Q288.28-21.99 287.27-22.08L287.27-22.08L287.27-22.08Q286.90-22.13 286.17-22.13L286.17-22.13L286.17-22.13Q282.72-22.13 280.53-20.29L280.53-20.29L280.53-20.29Q278.35-18.45 278.35-15.50L278.35-15.50L278.35-1.75L278.35-1.75Q278.35-0.92 277.89-0.46L277.89-0.46L277.89-0.46Q277.43 0 276.60 0L276.60 0L276.60 0Q275.77 0 275.31-0.46L275.31-0.46L275.31-0.46Q274.85-0.92 274.85-1.75L274.85-1.75L274.85-23.41L274.85-23.41Q274.85-24.24 275.31-24.70L275.31-24.70L275.31-24.70Q275.77-25.16 276.60-25.16L276.60-25.16L276.60-25.16Q277.43-25.16 277.89-24.70L277.89-24.70L277.89-24.70Q278.35-24.24 278.35-23.41L278.35-23.41L278.35-21.39L278.35-21.39Q279.68-23.32 281.75-24.38L281.75-24.38L281.75-24.38Q283.82-25.44 286.21-25.44L286.21-25.44ZM296.65-23.37L296.65-23.37Q296.65-24.15 297.16-24.66L297.16-24.66L297.16-24.66Q297.67-25.16 298.45-25.16L298.45-25.16L298.45-25.16Q299.23-25.16 299.71-24.66L299.71-24.66L299.71-24.66Q300.20-24.15 300.20-23.37L300.20-23.37L300.20-1.79L300.20-1.79Q300.20-1.01 299.71-0.51L299.71-0.51L299.71-0.51Q299.23 0 298.45 0L298.45 0L298.45 0Q297.67 0 297.16-0.51L297.16-0.51L297.16-0.51Q296.65-1.01 296.65-1.79L296.65-1.79L296.65-23.37ZM298.45-34.96L298.45-34.96Q299.46-34.96 300.20-34.27L300.20-34.27L300.20-34.27Q300.93-33.58 300.93-32.48L300.93-32.48L300.93-32.48Q300.93-31.42 300.20-30.68L300.20-30.68L300.20-30.68Q299.46-29.95 298.40-29.95L298.40-29.95L298.40-29.95Q297.34-29.95 296.63-30.68L296.63-30.68L296.63-30.68Q295.92-31.42 295.92-32.48L295.92-32.48L295.92-32.48Q295.92-33.58 296.65-34.27L296.65-34.27L296.65-34.27Q297.39-34.96 298.45-34.96L298.45-34.96ZM320.67-25.39L320.67-25.39Q324.30-25.39 327.20-23.74L327.20-23.74L327.20-23.74Q330.10-22.08 331.77-19.14L331.77-19.14L331.77-19.14Q333.45-16.19 333.45-12.56L333.45-12.56L333.45-12.56Q333.45-8.92 331.80-6.00L331.80-6.00L331.80-6.00Q330.14-3.08 327.22-1.43L327.22-1.43L327.22-1.43Q324.30 0.23 320.67 0.23L320.67 0.23L320.67 0.23Q317.03 0.23 314.11-1.43L314.11-1.43L314.11-1.43Q311.19-3.08 309.53-6.00L309.53-6.00L309.53-6.00Q307.88-8.92 307.88-12.56L307.88-12.56L307.88-12.56Q307.88-16.19 309.53-19.14L309.53-19.14L309.53-19.14Q311.19-22.08 314.11-23.74L314.11-23.74L314.11-23.74Q317.03-25.39 320.67-25.39L320.67-25.39ZM320.67-22.17L320.67-22.17Q318.04-22.17 315.91-20.93L315.91-20.93L315.91-20.93Q313.77-19.69 312.55-17.50L312.55-17.50L312.55-17.50Q311.33-15.32 311.33-12.56L311.33-12.56L311.33-12.56Q311.33-9.84 312.55-7.66L312.55-7.66L312.55-7.66Q313.77-5.47 315.91-4.23L315.91-4.23L315.91-4.23Q318.04-2.99 320.67-2.99L320.67-2.99L320.67-2.99Q323.33-2.99 325.45-4.23L325.45-4.23L325.45-4.23Q327.57-5.47 328.76-7.66L328.76-7.66L328.76-7.66Q329.96-9.84 329.96-12.56L329.96-12.56L329.96-12.56Q329.96-15.32 328.76-17.50L328.76-17.50L328.76-17.50Q327.57-19.69 325.45-20.93L325.45-20.93L325.45-20.93Q323.33-22.17 320.67-22.17L320.67-22.17ZM364.55-23.83L364.55-23.83Q364.60-23.69 364.60-23.41L364.60-23.41L364.60-12.60L364.60-12.60Q364.60-9.02 362.92-6.07L362.92-6.07L362.92-6.07Q361.24-3.13 358.32-1.45L358.32-1.45L358.32-1.45Q355.40 0.23 351.81 0.23L351.81 0.23L351.81 0.23Q348.22 0.23 345.30-1.45L345.30-1.45L345.30-1.45Q342.38-3.13 340.70-6.07L340.70-6.07L340.70-6.07Q339.02-9.02 339.02-12.60L339.02-12.60L339.02-12.60Q339.02-16.19 340.65-19.11L340.65-19.11L340.65-19.11Q342.29-22.03 345.12-23.71L345.12-23.71L345.12-23.71Q347.94-25.39 351.44-25.39L351.44-25.39L351.44-25.39Q354.43-25.39 356.91-24.13L356.91-24.13L356.91-24.13Q359.40-22.86 361.01-20.65L361.01-20.65L361.01-34.13L361.01-34.13Q361.01-34.91 361.51-35.42L361.51-35.42L361.51-35.42Q362.02-35.93 362.80-35.93L362.80-35.93L362.80-35.93Q363.58-35.93 364.07-35.42L364.07-35.42L364.07-35.42Q364.55-34.91 364.55-34.13L364.55-34.13L364.55-23.83ZM351.81-2.99L351.81-2.99Q354.43-2.99 356.55-4.25L356.55-4.25L356.55-4.25Q358.66-5.52 359.88-7.71L359.88-7.71L359.88-7.71Q361.10-9.89 361.10-12.60L361.10-12.60L361.10-12.60Q361.10-13.39 361.05-13.75L361.05-13.75L361.05-13.75Q361.01-13.85 361.01-13.98L361.01-13.98L361.01-13.98Q360.55-17.57 358.00-19.87L358.00-19.87L358.00-19.87Q355.44-22.17 351.81-22.17L351.81-22.17L351.81-22.17Q349.19-22.17 347.05-20.93L347.05-20.93L347.05-20.93Q344.91-19.69 343.69-17.50L343.69-17.50L343.69-17.50Q342.47-15.32 342.47-12.60L342.47-12.60L342.47-12.60Q342.47-9.89 343.69-7.71L343.69-7.71L343.69-7.71Q344.91-5.52 347.05-4.25L347.05-4.25L347.05-4.25Q349.19-2.99 351.81-2.99L351.81-2.99ZM373.61-23.37L373.61-23.37Q373.61-24.15 374.12-24.66L374.12-24.66L374.12-24.66Q374.62-25.16 375.41-25.16L375.41-25.16L375.41-25.16Q376.19-25.16 376.67-24.66L376.67-24.66L376.67-24.66Q377.15-24.15 377.15-23.37L377.15-23.37L377.15-1.79L377.15-1.79Q377.15-1.01 376.67-0.51L376.67-0.51L376.67-0.51Q376.19 0 375.41 0L375.41 0L375.41 0Q374.62 0 374.12-0.51L374.12-0.51L374.12-0.51Q373.61-1.01 373.61-1.79L373.61-1.79L373.61-23.37ZM375.41-34.96L375.41-34.96Q376.42-34.96 377.15-34.27L377.15-34.27L377.15-34.27Q377.89-33.58 377.89-32.48L377.89-32.48L377.89-32.48Q377.89-31.42 377.15-30.68L377.15-30.68L377.15-30.68Q376.42-29.95 375.36-29.95L375.36-29.95L375.36-29.95Q374.30-29.95 373.59-30.68L373.59-30.68L373.59-30.68Q372.88-31.42 372.88-32.48L372.88-32.48L372.88-32.48Q372.88-33.58 373.61-34.27L373.61-34.27L373.61-34.27Q374.35-34.96 375.41-34.96L375.41-34.96ZM396.93-25.39L396.93-25.39Q402.68-25.39 406.27-20.98L406.27-20.98L406.27-20.98Q406.64-20.56 406.64-20.01L406.64-20.01L406.64-20.01Q406.64-19.27 405.86-18.72L405.86-18.72L405.86-18.72Q405.44-18.45 404.98-18.45L404.98-18.45L404.98-18.45Q404.29-18.45 403.65-19.14L403.65-19.14L403.65-19.14Q402.27-20.65 400.61-21.41L400.61-21.41L400.61-21.41Q398.96-22.17 396.93-22.17L396.93-22.17L396.93-22.17Q394.40-22.17 392.43-20.95L392.43-20.95L392.43-20.95Q390.45-19.73 389.37-17.53L389.37-17.53L389.37-17.53Q388.29-15.32 388.29-12.56L388.29-12.56L388.29-12.56Q388.29-9.84 389.44-7.66L389.44-7.66L389.44-7.66Q390.59-5.47 392.66-4.23L392.66-4.23L392.66-4.23Q394.73-2.99 397.39-2.99L397.39-2.99L397.39-2.99Q401.07-2.99 403.33-4.97L403.33-4.97L403.33-4.97Q403.93-5.47 404.57-5.47L404.57-5.47L404.57-5.47Q405.12-5.47 405.58-5.11L405.58-5.11L405.58-5.11Q406.23-4.55 406.23-3.86L406.23-3.86L406.23-3.86Q406.23-3.27 405.77-2.85L405.77-2.85L405.77-2.85Q402.45 0.23 397.39 0.23L397.39 0.23L397.39 0.23Q393.81 0.23 390.95-1.45L390.95-1.45L390.95-1.45Q388.10-3.13 386.47-6.05L386.47-6.05L386.47-6.05Q384.84-8.97 384.84-12.56L384.84-12.56L384.84-12.56Q384.84-16.24 386.40-19.16L386.40-19.16L386.40-19.16Q387.96-22.08 390.72-23.74L390.72-23.74L390.72-23.74Q393.48-25.39 396.93-25.39L396.93-25.39ZM437.78-25.39L437.78-25.39Q441.19-25.39 443.81-23.80L443.81-23.80L443.81-23.80Q446.43-22.22 447.88-19.41L447.88-19.41L447.88-19.41Q449.33-16.61 449.33-13.02L449.33-13.02L449.33-13.02Q449.33-12.28 448.87-11.85L448.87-11.85L448.87-11.85Q448.41-11.41 447.67-11.41L447.67-11.41L429.09-11.41L429.09-11.41Q429.46-7.64 432.03-5.29L432.03-5.29L432.03-5.29Q434.61-2.94 438.47-2.94L438.47-2.94L438.47-2.94Q440.13-2.94 441.81-3.52L441.81-3.52L441.81-3.52Q443.49-4.09 444.50-4.97L444.50-4.97L444.50-4.97Q445.10-5.43 445.74-5.43L445.74-5.43L445.74-5.43Q446.25-5.43 446.75-5.06L446.75-5.06L446.75-5.06Q447.35-4.51 447.35-3.82L447.35-3.82L447.35-3.82Q447.35-3.22 446.84-2.76L446.84-2.76L446.84-2.76Q445.33-1.47 442.98-0.62L442.98-0.62L442.98-0.62Q440.63 0.23 438.47 0.23L438.47 0.23L438.47 0.23Q434.79 0.23 431.89-1.40L431.89-1.40L431.89-1.40Q429.00-3.04 427.36-5.96L427.36-5.96L427.36-5.96Q425.73-8.88 425.73-12.56L425.73-12.56L425.73-12.56Q425.73-16.28 427.27-19.20L427.27-19.20L427.27-19.20Q428.81-22.13 431.55-23.76L431.55-23.76L431.55-23.76Q434.29-25.39 437.78-25.39L437.78-25.39ZM437.78-22.22L437.78-22.22Q434.29-22.22 431.99-20.06L431.99-20.06L431.99-20.06Q429.69-17.89 429.18-14.35L429.18-14.35L446.02-14.35L446.02-14.35Q445.65-17.89 443.44-20.06L443.44-20.06L443.44-20.06Q441.23-22.22 437.78-22.22L437.78-22.22ZM454.39-34.18L454.39-34.18Q454.39-34.96 454.89-35.44L454.89-35.44L454.89-35.44Q455.40-35.93 456.14-35.93L456.14-35.93L456.14-35.93Q456.92-35.93 457.40-35.44L457.40-35.44L457.40-35.44Q457.88-34.96 457.88-34.18L457.88-34.18L457.88-7.96L457.88-7.96Q457.88-5.98 458.69-4.74L458.69-4.74L458.69-4.74Q459.49-3.50 460.74-3.50L460.74-3.50L461.89-3.50L461.89-3.50Q462.58-3.50 462.99-3.01L462.99-3.01L462.99-3.01Q463.40-2.53 463.40-1.75L463.40-1.75L463.40-1.75Q463.40-0.97 462.83-0.48L462.83-0.48L462.83-0.48Q462.25 0 461.33 0L461.33 0L460.74 0L460.74 0Q457.93 0 456.16-2.23L456.16-2.23L456.16-2.23Q454.39-4.46 454.39-7.96L454.39-7.96L454.39-34.18ZM479.00-25.39L479.00-25.39Q482.40-25.39 485.02-23.80L485.02-23.80L485.02-23.80Q487.65-22.22 489.09-19.41L489.09-19.41L489.09-19.41Q490.54-16.61 490.54-13.02L490.54-13.02L490.54-13.02Q490.54-12.28 490.08-11.85L490.08-11.85L490.08-11.85Q489.62-11.41 488.89-11.41L488.89-11.41L470.30-11.41L470.30-11.41Q470.67-7.64 473.25-5.29L473.25-5.29L473.25-5.29Q475.82-2.94 479.69-2.94L479.69-2.94L479.69-2.94Q481.34-2.94 483.02-3.52L483.02-3.52L483.02-3.52Q484.70-4.09 485.71-4.97L485.71-4.97L485.71-4.97Q486.31-5.43 486.96-5.43L486.96-5.43L486.96-5.43Q487.46-5.43 487.97-5.06L487.97-5.06L487.97-5.06Q488.57-4.51 488.57-3.82L488.57-3.82L488.57-3.82Q488.57-3.22 488.06-2.76L488.06-2.76L488.06-2.76Q486.54-1.47 484.20-0.62L484.20-0.62L484.20-0.62Q481.85 0.23 479.69 0.23L479.69 0.23L479.69 0.23Q476.01 0.23 473.11-1.40L473.11-1.40L473.11-1.40Q470.21-3.04 468.58-5.96L468.58-5.96L468.58-5.96Q466.95-8.88 466.95-12.56L466.95-12.56L466.95-12.56Q466.95-16.28 468.49-19.20L468.49-19.20L468.49-19.20Q470.03-22.13 472.76-23.76L472.76-23.76L472.76-23.76Q475.50-25.39 479.00-25.39L479.00-25.39ZM479.00-22.22L479.00-22.22Q475.50-22.22 473.20-20.06L473.20-20.06L473.20-20.06Q470.90-17.89 470.40-14.35L470.40-14.35L487.23-14.35L487.23-14.35Q486.86-17.89 484.66-20.06L484.66-20.06L484.66-20.06Q482.45-22.22 479.00-22.22L479.00-22.22ZM523.02-25.44L523.02-25.44Q525.73-25.44 527.83-24.15L527.83-24.15L527.83-24.15Q529.92-22.86 531.09-20.49L531.09-20.49L531.09-20.49Q532.27-18.12 532.27-15.00L532.27-15.00L532.27-1.75L532.27-1.75Q532.27-0.97 531.78-0.48L531.78-0.48L531.78-0.48Q531.30 0 530.52 0L530.52 0L530.52 0Q529.74 0 529.23-0.48L529.23-0.48L529.23-0.48Q528.72-0.97 528.72-1.75L528.72-1.75L528.72-15.00L528.72-15.00Q528.72-18.26 527.05-20.17L527.05-20.17L527.05-20.17Q525.37-22.08 522.65-22.08L522.65-22.08L522.65-22.08Q519.75-22.08 517.96-20.15L517.96-20.15L517.96-20.15Q516.17-18.22 516.21-15.09L516.21-15.09L516.21-15.00L516.21-1.75L516.21-1.75Q516.21-0.97 515.73-0.48L515.73-0.48L515.73-0.48Q515.25 0 514.46 0L514.46 0L514.46 0Q513.68 0 513.18-0.48L513.18-0.48L513.18-0.48Q512.67-0.97 512.67-1.75L512.67-1.75L512.67-15.00L512.67-15.00Q512.67-18.26 510.99-20.17L510.99-20.17L510.99-20.17Q509.31-22.08 506.60-22.08L506.60-22.08L506.60-22.08Q503.75-22.08 501.91-20.19L501.91-20.19L501.91-20.19Q500.07-18.31 500.07-15.36L500.07-15.36L500.07-1.75L500.07-1.75Q500.07-0.97 499.58-0.48L499.58-0.48L499.58-0.48Q499.10 0 498.32 0L498.32 0L498.32 0Q497.54 0 497.03-0.48L497.03-0.48L497.03-0.48Q496.52-0.97 496.52-1.75L496.52-1.75L496.52-23.37L496.52-23.37Q496.52-24.15 497.03-24.66L497.03-24.66L497.03-24.66Q497.54-25.16 498.32-25.16L498.32-25.16L498.32-25.16Q499.10-25.16 499.58-24.66L499.58-24.66L499.58-24.66Q500.07-24.15 500.07-23.37L500.07-23.37L500.07-22.36L500.07-22.36Q501.35-23.83 503.13-24.63L503.13-24.63L503.13-24.63Q504.90-25.44 506.97-25.44L506.97-25.44L506.97-25.44Q509.50-25.44 511.52-24.29L511.52-24.29L511.52-24.29Q513.54-23.14 514.74-21.07L514.74-21.07L514.74-21.07Q516.07-23.14 518.21-24.29L518.21-24.29L518.21-24.29Q520.35-25.44 523.02-25.44L523.02-25.44ZM550.80-25.39L550.80-25.39Q554.21-25.39 556.83-23.80L556.83-23.80L556.83-23.80Q559.45-22.22 560.90-19.41L560.90-19.41L560.90-19.41Q562.35-16.61 562.35-13.02L562.35-13.02L562.35-13.02Q562.35-12.28 561.89-11.85L561.89-11.85L561.89-11.85Q561.43-11.41 560.69-11.41L560.69-11.41L542.11-11.41L542.11-11.41Q542.48-7.64 545.05-5.29L545.05-5.29L545.05-5.29Q547.63-2.94 551.49-2.94L551.49-2.94L551.49-2.94Q553.15-2.94 554.83-3.52L554.83-3.52L554.83-3.52Q556.51-4.09 557.52-4.97L557.52-4.97L557.52-4.97Q558.12-5.43 558.76-5.43L558.76-5.43L558.76-5.43Q559.27-5.43 559.77-5.06L559.77-5.06L559.77-5.06Q560.37-4.51 560.37-3.82L560.37-3.82L560.37-3.82Q560.37-3.22 559.87-2.76L559.87-2.76L559.87-2.76Q558.35-1.47 556.00-0.62L556.00-0.62L556.00-0.62Q553.66 0.23 551.49 0.23L551.49 0.23L551.49 0.23Q547.81 0.23 544.92-1.40L544.92-1.40L544.92-1.40Q542.02-3.04 540.38-5.96L540.38-5.96L540.38-5.96Q538.75-8.88 538.75-12.56L538.75-12.56L538.75-12.56Q538.75-16.28 540.29-19.20L540.29-19.20L540.29-19.20Q541.83-22.13 544.57-23.76L544.57-23.76L544.57-23.76Q547.31-25.39 550.80-25.39L550.80-25.39ZM550.80-22.22L550.80-22.22Q547.31-22.22 545.01-20.06L545.01-20.06L545.01-20.06Q542.71-17.89 542.20-14.35L542.20-14.35L559.04-14.35L559.04-14.35Q558.67-17.89 556.46-20.06L556.46-20.06L556.46-20.06Q554.25-22.22 550.80-22.22L550.80-22.22ZM580.24-25.44L580.24-25.44Q583.51-25.44 586.11-24.06L586.11-24.06L586.11-24.06Q588.71-22.68 590.18-20.03L590.18-20.03L590.18-20.03Q591.65-17.39 591.65-13.71L591.65-13.71L591.65-1.75L591.65-1.75Q591.65-1.01 591.15-0.51L591.15-0.51L591.15-0.51Q590.64 0 589.90 0L589.90 0L589.90 0Q589.12 0 588.62-0.51L588.62-0.51L588.62-0.51Q588.11-1.01 588.11-1.75L588.11-1.75L588.11-13.71L588.11-13.71Q588.11-17.80 585.83-19.94L585.83-19.94L585.83-19.94Q583.56-22.08 579.88-22.08L579.88-22.08L579.88-22.08Q577.62-22.08 575.81-21.21L575.81-21.21L575.81-21.21Q573.99-20.33 572.93-18.79L572.93-18.79L572.93-18.79Q571.87-17.25 571.87-15.36L571.87-15.36L571.87-1.75L571.87-1.75Q571.87-0.97 571.39-0.48L571.39-0.48L571.39-0.48Q570.91 0 570.12 0L570.12 0L570.12 0Q569.34 0 568.84-0.48L568.84-0.48L568.84-0.48Q568.33-0.97 568.33-1.75L568.33-1.75L568.33-23.37L568.33-23.37Q568.33-24.15 568.84-24.66L568.84-24.66L568.84-24.66Q569.34-25.16 570.12-25.16L570.12-25.16L570.12-25.16Q570.91-25.16 571.39-24.66L571.39-24.66L571.39-24.66Q571.87-24.15 571.87-23.37L571.87-23.37L571.87-21.80L571.87-21.80Q573.39-23.51 575.55-24.47L575.55-24.47L575.55-24.47Q577.71-25.44 580.24-25.44L580.24-25.44ZM610.56-3.54L610.56-3.54Q611.29-3.54 611.75-3.04L611.75-3.04L611.75-3.04Q612.21-2.53 612.21-1.75L612.21-1.75L612.21-1.75Q612.21-1.01 611.66-0.51L611.66-0.51L611.66-0.51Q611.11 0 610.28 0L610.28 0L609.32 0L609.32 0Q606.88 0 604.95-1.17L604.95-1.17L604.95-1.17Q603.01-2.35 601.93-4.35L601.93-4.35L601.93-4.35Q600.85-6.35 600.85-8.88L600.85-8.88L600.85-21.16L597.86-21.16L597.86-21.16Q597.13-21.16 596.69-21.60L596.69-21.60L596.69-21.60Q596.25-22.03 596.25-22.68L596.25-22.68L596.25-22.68Q596.25-23.37 596.69-23.80L596.69-23.80L596.69-23.80Q597.13-24.24 597.86-24.24L597.86-24.24L600.85-24.24L600.85-31.37L600.85-31.37Q600.85-32.15 601.34-32.66L601.34-32.66L601.34-32.66Q601.82-33.17 602.60-33.17L602.60-33.17L602.60-33.17Q603.38-33.17 603.89-32.66L603.89-32.66L603.89-32.66Q604.39-32.15 604.39-31.37L604.39-31.37L604.39-24.24L609.59-24.24L609.59-24.24Q610.33-24.24 610.77-23.80L610.77-23.80L610.77-23.80Q611.20-23.37 611.20-22.68L611.20-22.68L611.20-22.68Q611.20-22.03 610.77-21.60L610.77-21.60L610.77-21.60Q610.33-21.16 609.59-21.16L609.59-21.16L604.39-21.16L604.39-8.88L604.39-8.88Q604.39-6.53 605.77-5.04L605.77-5.04L605.77-5.04Q607.15-3.54 609.32-3.54L609.32-3.54L610.56-3.54ZM626.66-25.39L626.66-25.39Q629.69-25.39 631.95-24.36L631.95-24.36L631.95-24.36Q634.20-23.32 635.58-21.48L635.58-21.48L635.58-21.48Q635.95-20.88 635.95-20.42L635.95-20.42L635.95-20.42Q635.95-19.64 635.21-19.18L635.21-19.18L635.21-19.18Q634.89-18.95 634.34-18.95L634.34-18.95L634.34-18.95Q633.37-18.95 632.73-19.64L632.73-19.64L632.73-19.64Q630.48-22.22 626.57-22.22L626.57-22.22L626.57-22.22Q624.04-22.22 622.52-21.18L622.52-21.18L622.52-21.18Q621.00-20.15 621.00-18.58L621.00-18.58L621.00-18.58Q621.00-16.93 622.43-15.94L622.43-15.94L622.43-15.94Q623.85-14.95 627.49-14.35L627.49-14.35L627.49-14.35Q632.41-13.52 634.52-11.66L634.52-11.66L634.52-11.66Q636.64-9.80 636.64-7.04L636.64-7.04L636.64-7.04Q636.64-4.92 635.38-3.27L635.38-3.27L635.38-3.27Q634.11-1.61 631.86-0.69L631.86-0.69L631.86-0.69Q629.60 0.23 626.75 0.23L626.75 0.23L626.75 0.23Q623.90 0.23 621.28-0.74L621.28-0.74L621.28-0.74Q618.65-1.70 617.04-3.45L617.04-3.45L617.04-3.45Q616.58-4.00 616.58-4.51L616.58-4.51L616.58-4.51Q616.58-5.29 617.32-5.89L617.32-5.89L617.32-5.89Q617.87-6.30 618.47-6.30L618.47-6.30L618.47-6.30Q619.25-6.30 619.80-5.66L619.80-5.66L619.80-5.66Q620.91-4.37 622.73-3.68L622.73-3.68L622.73-3.68Q624.54-2.99 626.75-2.99L626.75-2.99L626.75-2.99Q629.97-2.99 631.58-4.09L631.58-4.09L631.58-4.09Q633.19-5.20 633.24-6.99L633.24-6.99L633.24-6.99Q633.24-8.65 631.63-9.75L631.63-9.75L631.63-9.75Q630.02-10.86 626.52-11.41L626.52-11.41L626.52-11.41Q622.01-12.14 619.78-13.96L619.78-13.96L619.78-13.96Q617.55-15.78 617.55-18.35L617.55-18.35L617.55-18.35Q617.55-21.71 620.15-23.55L620.15-23.55L620.15-23.55Q622.75-25.39 626.66-25.39L626.66-25.39Z" fill="#a7a7a7"></path></g></g><style>text {
  font-size: 64px;
  font-family: Arial Black;
  dominant-baseline: central;
  text-anchor: middle;
}</style></svg>