<svg id="visual" viewBox="0 0 1920 1080" width="1920" height="1080" xmlns="http://www.w3.org/2000/svg" xmlns:xlink="http://www.w3.org/1999/xlink" version="1.1"><rect x="0" y="0" width="1920" height="1080" fill="#DEE2E6"></rect><defs><linearGradient id="grad1_0" x1="43.8%" y1="0%" x2="100%" y2="100%"><stop offset="14.444444444444446%" stop-color="#fdfdfd" stop-opacity="1"></stop><stop offset="85.55555555555554%" stop-color="#fdfdfd" stop-opacity="1"></stop></linearGradient></defs><defs><linearGradient id="grad1_1" x1="43.8%" y1="0%" x2="100%" y2="100%"><stop offset="14.444444444444446%" stop-color="#fdfdfd" stop-opacity="1"></stop><stop offset="85.55555555555554%" stop-color="#dee2e6" stop-opacity="1"></stop></linearGradient></defs><defs><linearGradient id="grad2_0" x1="0%" y1="0%" x2="56.3%" y2="100%"><stop offset="14.444444444444446%" stop-color="#fdfdfd" stop-opacity="1"></stop><stop offset="85.55555555555554%" stop-color="#fdfdfd" stop-opacity="1"></stop></linearGradient></defs><defs><linearGradient id="grad2_1" x1="0%" y1="0%" x2="56.3%" y2="100%"><stop offset="14.444444444444446%" stop-color="#dee2e6" stop-opacity="1"></stop><stop offset="85.55555555555554%" stop-color="#fdfdfd" stop-opacity="1"></stop></linearGradient></defs><g transform="translate(1920, 0)"><path d="M0 972C-135.6 969.2 -271.2 966.4 -372 898C-472.7 829.6 -538.6 695.6 -586.9 586.9C-635.2 478.2 -665.8 394.8 -727.1 301.2C-788.3 207.6 -880.2 103.8 -972 0L0 0Z" fill="#edeff1"></path><path d="M0 486C-67.8 484.6 -135.6 483.2 -186 449C-236.4 414.8 -269.3 347.8 -293.4 293.4C-317.6 239.1 -332.9 197.4 -363.5 150.6C-394.2 103.8 -440.1 51.9 -486 0L0 0Z" fill="#fdfdfd"></path></g><g transform="translate(0, 1080)"><path d="M0 -972C127.4 -958.4 254.9 -944.8 372 -898C489.1 -851.2 595.8 -771.1 675.3 -675.3C754.7 -579.5 806.9 -468 851.8 -352.8C896.7 -237.7 934.4 -118.8 972 0L0 0Z" fill="#edeff1"></path><path d="M0 -486C63.7 -479.2 127.4 -472.4 186 -449C244.5 -425.6 297.9 -385.5 337.6 -337.6C377.4 -289.7 403.5 -234 425.9 -176.4C448.4 -118.8 467.2 -59.4 486 0L0 0Z" fill="#fdfdfd"></path></g></svg>